# xmcd
#
# Track frame offsets: 
#        150
#        18533
#        52064
#        72170
#        87709
#        117197
#        136571
#        151046
#        174100
#        207345
#        234383
#        241689
#
# Disc length: 3501 seconds
#
# Revision: 2
# Processed by: cddbd v1.5.2PL0 Copyright (c) Steve Scherf et al.
# Submitted via: ExactAudioCopy v1.3
#
DISCID=920dab0c
DTITLE=Milnes (Macb.), Ludwig (Lady), Ridderbusch (Banco), Cossutta (M
DTITLE=acd.) - Böhm, Orchester der Wiener Staatsoper - 1970 - Macbeth -
DTITLE=Böhm, Wien 18.4.70 - CD2
DYEAR=1970
DGENRE=Oper
TTITLE0=AKT3 - Tre volte miagola
TTITLE1=Che fate voi, misteriose donne?
TTITLE2=Fuggi, regal fantasima
TTITLE3=Vi trovo alfin! - Ora die morte
TTITLE4=AKT4 - Patria opressa
TTITLE5=O figli ... Ah, la paterna mano
TTITLE6=Dove siam? che bosco è quello?
TTITLE7=Vegliammo invan due notti
TTITLE8=Una macchia è qui tuttora
TTITLE9=Perfidi! All'angelo ... Pietà, rispetto
TTITLE10=Ella è morta!
TTITLE11=Carnefice de'figli miei - Mal per me
EXTD=
EXTT0=
EXTT1=
EXTT2=
EXTT3=
EXTT4=
EXTT5=
EXTT6=
EXTT7=
EXTT8=
EXTT9=
EXTT10=
EXTT11=
PLAYORDER=
